<svg width="600" height="400" viewBox="0 0 600 400" fill="none" xmlns="http://www.w3.org/2000/svg">
  <rect width="600" height="400" fill="#1f2937"/>
  <rect x="50" y="50" width="500" height="300" rx="8" fill="#374151"/>
  
  <!-- Header -->
  <rect x="70" y="70" width="460" height="40" rx="4" fill="#4b5563"/>
  <rect x="90" y="85" width="80" height="10" rx="2" fill="#6b7280"/>
  <rect x="190" y="85" width="80" height="10" rx="2" fill="#6b7280"/>
  <rect x="290" y="85" width="80" height="10" rx="2" fill="#6b7280"/>
  <rect x="390" y="85" width="80" height="10" rx="2" fill="#6b7280"/>
  
  <!-- Balance Card -->
  <rect x="70" y="130" width="200" height="120" rx="4" fill="#4b5563"/>
  <text x="170" y="160" text-anchor="middle" fill="#9ca3af" font-family="Arial, sans-serif" font-size="12">Total Balance</text>
  <text x="170" y="185" text-anchor="middle" fill="white" font-family="Arial, sans-serif" font-size="28" font-weight="bold">$12,450</text>
  <rect x="90" y="200" width="160" height="6" rx="3" fill="#e5e7eb"/>
  <rect x="90" y="200" width="120" height="6" rx="3" fill="#10b981"/>
  <text x="170" y="220" text-anchor="middle" fill="#10b981" font-family="Arial, sans-serif" font-size="12">+15% this month</text>
  
  <!-- Expense Chart -->
  <rect x="290" y="130" width="240" height="120" rx="4" fill="#4b5563"/>
  <rect x="300" y="140" width="220" height="100" rx="2" fill="#6b7280"/>
  
  <!-- Chart Bars -->
  <rect x="310" y="200" width="20" height="30" rx="2" fill="#ef4444"/>
  <rect x="340" y="190" width="20" height="40" rx="2" fill="#f59e0b"/>
  <rect x="370" y="180" width="20" height="50" rx="2" fill="#10b981"/>
  <rect x="400" y="170" width="20" height="60" rx="2" fill="#3b82f6"/>
  <rect x="430" y="185" width="20" height="45" rx="2" fill="#8b5cf6"/>
  <rect x="460" y="195" width="20" height="35" rx="2" fill="#ec4899"/>
  <rect x="490" y="175" width="20" height="55" rx="2" fill="#06b6d4"/>
  
  <!-- Chart Labels -->
  <text x="320" y="250" text-anchor="middle" fill="#9ca3af" font-family="Arial, sans-serif" font-size="8">Mon</text>
  <text x="350" y="250" text-anchor="middle" fill="#9ca3af" font-family="Arial, sans-serif" font-size="8">Tue</text>
  <text x="380" y="250" text-anchor="middle" fill="#9ca3af" font-family="Arial, sans-serif" font-size="8">Wed</text>
  <text x="410" y="250" text-anchor="middle" fill="#9ca3af" font-family="Arial, sans-serif" font-size="8">Thu</text>
  <text x="440" y="250" text-anchor="middle" fill="#9ca3af" font-family="Arial, sans-serif" font-size="8">Fri</text>
  <text x="470" y="250" text-anchor="middle" fill="#9ca3af" font-family="Arial, sans-serif" font-size="8">Sat</text>
  <text x="500" y="250" text-anchor="middle" fill="#9ca3af" font-family="Arial, sans-serif" font-size="8">Sun</text>
  
  <!-- Recent Transactions -->
  <rect x="70" y="270" width="460" height="60" rx="4" fill="#4b5563"/>
  
  <!-- Transaction Items -->
  <rect x="80" y="280" width="40" height="40" rx="20" fill="#ef4444"/>
  <text x="100" y="295" text-anchor="middle" fill="white" font-family="Arial, sans-serif" font-size="12" font-weight="bold">F</text>
  <text x="130" y="295" fill="white" font-family="Arial, sans-serif" font-size="12">Food & Dining</text>
  <text x="130" y="310" fill="#9ca3af" font-family="Arial, sans-serif" font-size="10">Today, 2:30 PM</text>
  <text x="500" y="295" text-anchor="end" fill="#ef4444" font-family="Arial, sans-serif" font-size="12" font-weight="bold">-$45.20</text>
  
  <rect x="80" y="330" width="40" height="40" rx="20" fill="#10b981"/>
  <text x="100" y="345" text-anchor="middle" fill="white" font-family="Arial, sans-serif" font-size="12" font-weight="bold">S</text>
  <text x="130" y="345" fill="white" font-family="Arial, sans-serif" font-size="12">Salary</text>
  <text x="130" y="360" fill="#9ca3af" font-family="Arial, sans-serif" font-size="10">Yesterday, 9:00 AM</text>
  <text x="500" y="345" text-anchor="end" fill="#10b981" font-family="Arial, sans-serif" font-size="12" font-weight="bold">+$2,500.00</text>
  
  <!-- Currency Icon -->
  <circle cx="520" cy="90" r="15" fill="#10b981"/>
  <text x="520" y="95" text-anchor="middle" fill="white" font-family="Arial, sans-serif" font-size="12" font-weight="bold">$</text>
  
  <!-- Title -->
  <text x="300" y="25" text-anchor="middle" fill="#f3f4f6" font-family="Arial, sans-serif" font-size="16" font-weight="bold">FinanceTracker Pro</text>
</svg>
