<svg width="600" height="400" viewBox="0 0 600 400" fill="none" xmlns="http://www.w3.org/2000/svg">
  <rect width="600" height="400" fill="#1f2937"/>
  <rect x="50" y="50" width="500" height="300" rx="8" fill="#374151"/>
  
  <!-- Header -->
  <rect x="70" y="70" width="460" height="40" rx="4" fill="#4b5563"/>
  <rect x="90" y="85" width="80" height="10" rx="2" fill="#6b7280"/>
  <rect x="190" y="85" width="80" height="10" rx="2" fill="#6b7280"/>
  <rect x="290" y="85" width="80" height="10" rx="2" fill="#6b7280"/>
  <rect x="390" y="85" width="80" height="10" rx="2" fill="#6b7280"/>
  
  <!-- Kanban Board -->
  <rect x="70" y="130" width="140" height="200" rx="4" fill="#4b5563"/>
  <rect x="80" y="140" width="120" height="25" rx="2" fill="#6b7280"/>
  <rect x="80" y="175" width="120" height="60" rx="2" fill="#10b981"/>
  <rect x="80" y="245" width="120" height="60" rx="2" fill="#10b981"/>
  <rect x="80" y="315" width="120" height="60" rx="2" fill="#10b981"/>
  
  <rect x="230" y="130" width="140" height="200" rx="4" fill="#4b5563"/>
  <rect x="240" y="140" width="120" height="25" rx="2" fill="#6b7280"/>
  <rect x="240" y="175" width="120" height="60" rx="2" fill="#3b82f6"/>
  <rect x="240" y="245" width="120" height="60" rx="2" fill="#3b82f6"/>
  <rect x="240" y="315" width="120" height="60" rx="2" fill="#3b82f6"/>
  
  <rect x="390" y="130" width="140" height="200" rx="4" fill="#4b5563"/>
  <rect x="400" y="140" width="120" height="25" rx="2" fill="#6b7280"/>
  <rect x="400" y="175" width="120" height="60" rx="2" fill="#f59e0b"/>
  <rect x="400" y="245" width="120" height="60" rx="2" fill="#f59e0b"/>
  <rect x="400" y="315" width="120" height="60" rx="2" fill="#f59e0b"/>
  
  <!-- Task Cards -->
  <rect x="85" y="180" width="110" height="40" rx="2" fill="white"/>
  <rect x="90" y="185" width="80" height="8" rx="1" fill="#374151"/>
  <rect x="90" y="200" width="60" height="6" rx="1" fill="#6b7280"/>
  <rect x="90" y="210" width="40" height="6" rx="1" fill="#10b981"/>
  
  <rect x="245" y="180" width="110" height="40" rx="2" fill="white"/>
  <rect x="250" y="185" width="80" height="8" rx="1" fill="#374151"/>
  <rect x="250" y="200" width="60" height="6" rx="1" fill="#6b7280"/>
  <rect x="250" y="210" width="40" height="6" rx="1" fill="#3b82f6"/>
  
  <rect x="405" y="180" width="110" height="40" rx="2" fill="white"/>
  <rect x="410" y="185" width="80" height="8" rx="1" fill="#374151"/>
  <rect x="410" y="200" width="60" height="6" rx="1" fill="#6b7280"/>
  <rect x="410" y="210" width="40" height="6" rx="1" fill="#f59e0b"/>
  
  <!-- Progress Bars -->
  <rect x="85" y="250" width="110" height="6" rx="3" fill="#e5e7eb"/>
  <rect x="85" y="250" width="70" height="6" rx="3" fill="#10b981"/>
  
  <rect x="245" y="250" width="110" height="6" rx="3" fill="#e5e7eb"/>
  <rect x="245" y="250" width="90" height="6" rx="3" fill="#3b82f6"/>
  
  <rect x="405" y="250" width="110" height="6" rx="3" fill="#e5e7eb"/>
  <rect x="405" y="250" width="40" height="6" rx="3" fill="#f59e0b"/>
  
  <!-- Time Tracking -->
  <circle cx="520" cy="200" r="20" fill="#10b981"/>
  <text x="520" y="205" text-anchor="middle" fill="white" font-family="Arial, sans-serif" font-size="12" font-weight="bold">2h</text>
  
  <!-- Title -->
  <text x="300" y="25" text-anchor="middle" fill="#f3f4f6" font-family="Arial, sans-serif" font-size="16" font-weight="bold">TaskFlow Pro</text>
</svg>
