<svg width="600" height="400" viewBox="0 0 600 400" fill="none" xmlns="http://www.w3.org/2000/svg">
  <rect width="600" height="400" fill="#1f2937"/>
  <rect x="50" y="50" width="500" height="300" rx="8" fill="#374151"/>
  
  <!-- Header -->
  <rect x="70" y="70" width="460" height="40" rx="4" fill="#4b5563"/>
  <rect x="90" y="85" width="100" height="10" rx="2" fill="#6b7280"/>
  <rect x="210" y="85" width="80" height="10" rx="2" fill="#6b7280"/>
  <rect x="310" y="85" width="80" height="10" rx="2" fill="#6b7280"/>
  <rect x="410" y="85" width="80" height="10" rx="2" fill="#6b7280"/>
  
  <!-- Current Weather -->
  <rect x="70" y="130" width="200" height="150" rx="4" fill="#4b5563"/>
  <circle cx="170" cy="180" r="30" fill="#fbbf24"/>
  <circle cx="170" cy="180" r="25" fill="#fef3c7"/>
  <rect x="160" y="220" width="20" height="40" rx="10" fill="#3b82f6"/>
  <rect x="165" y="225" width="10" height="30" rx="5" fill="#60a5fa"/>
  <text x="170" y="280" text-anchor="middle" fill="white" font-family="Arial, sans-serif" font-size="24" font-weight="bold">24°C</text>
  <text x="170" y="300" text-anchor="middle" fill="#9ca3af" font-family="Arial, sans-serif" font-size="12">Sunny</text>
  
  <!-- Weather Chart -->
  <rect x="290" y="130" width="240" height="150" rx="4" fill="#4b5563"/>
  <rect x="300" y="140" width="220" height="130" rx="2" fill="#6b7280"/>
  
  <!-- Chart Lines -->
  <path d="M 310 200 L 330 180 L 350 190 L 370 170 L 390 185 L 410 175 L 430 195 L 450 165 L 470 185 L 490 175 L 510 190" stroke="#10b981" stroke-width="3" fill="none"/>
  <path d="M 310 220 L 330 200 L 350 210 L 370 190 L 390 205 L 410 195 L 430 215 L 450 185 L 470 205 L 490 195 L 510 210" stroke="#3b82f6" stroke-width="3" fill="none"/>
  
  <!-- Chart Labels -->
  <text x="310" y="280" fill="#9ca3af" font-family="Arial, sans-serif" font-size="10">Mon</text>
  <text x="330" y="280" fill="#9ca3af" font-family="Arial, sans-serif" font-size="10">Tue</text>
  <text x="350" y="280" fill="#9ca3af" font-family="Arial, sans-serif" font-size="10">Wed</text>
  <text x="370" y="280" fill="#9ca3af" font-family="Arial, sans-serif" font-size="10">Thu</text>
  <text x="390" y="280" fill="#9ca3af" font-family="Arial, sans-serif" font-size="10">Fri</text>
  <text x="410" y="280" fill="#9ca3af" font-family="Arial, sans-serif" font-size="10">Sat</text>
  <text x="430" y="280" fill="#9ca3af" font-family="Arial, sans-serif" font-size="10">Sun</text>
  
  <!-- Weather Icons -->
  <circle cx="100" cy="320" r="15" fill="#fbbf24"/>
  <circle cx="100" cy="320" r="12" fill="#fef3c7"/>
  
  <rect x="150" y="310" width="20" height="20" rx="10" fill="#3b82f6"/>
  <rect x="155" y="315" width="10" height="10" rx="5" fill="#60a5fa"/>
  
  <circle cx="200" cy="320" r="15" fill="#fbbf24"/>
  <circle cx="200" cy="320" r="12" fill="#fef3c7"/>
  
  <rect x="250" y="310" width="20" height="20" rx="10" fill="#3b82f6"/>
  <rect x="255" y="315" width="10" height="10" rx="5" fill="#60a5fa"/>
  
  <circle cx="300" cy="320" r="15" fill="#fbbf24"/>
  <circle cx="300" cy="320" r="12" fill="#fef3c7"/>
  
  <!-- Temperature Labels -->
  <text x="100" y="350" text-anchor="middle" fill="#9ca3af" font-family="Arial, sans-serif" font-size="10">22°</text>
  <text x="150" y="350" text-anchor="middle" fill="#9ca3af" font-family="Arial, sans-serif" font-size="10">18°</text>
  <text x="200" y="350" text-anchor="middle" fill="#9ca3af" font-family="Arial, sans-serif" font-size="10">25°</text>
  <text x="250" y="350" text-anchor="middle" fill="#9ca3af" font-family="Arial, sans-serif" font-size="10">19°</text>
  <text x="300" y="350" text-anchor="middle" fill="#9ca3af" font-family="Arial, sans-serif" font-size="10">27°</text>
  
  <!-- Location Icon -->
  <circle cx="520" cy="90" r="12" fill="#10b981"/>
  <circle cx="520" cy="90" r="8" fill="white"/>
  <circle cx="520" cy="90" r="4" fill="#10b981"/>
  
  <!-- Title -->
  <text x="300" y="25" text-anchor="middle" fill="#f3f4f6" font-family="Arial, sans-serif" font-size="16" font-weight="bold">WeatherHub Dashboard</text>
</svg>
